<?xml version="1.0" encoding="UTF-8" standalone="no"?>
<svg
   height="24"
   viewBox="0 -960 960 960"
   width="24"
   version="1.1"
   xmlns="http://www.w3.org/2000/svg">
  <path
     d="M 651.66667,-190 450,-393.33333 c -11.11111,4.44444 -22.36111,7.77777 -33.75,10 C 404.86111,-381.11111 392.77778,-380 380,-380 324.44444,-380 277.22223,-399.44444 238.33333,-438.33333 199.44444,-477.22223 180,-524.44444 180,-580 c 0,-20 2.77778,-39.02778 8.33333,-57.08333 5.55556,-18.05556 13.33334,-35.13889 23.33334,-51.25 l 121.66666,121.66666 60,-60 -121.66666,-121.66666 c 16.11111,-10 33.19444,-17.77778 51.25,-23.33334 C 340.97223,-777.22223 360,-780 380,-780 c 55.55556,0 102.77778,19.44444 141.66667,58.33333 C 560.55556,-682.77778 580,-635.55556 580,-580 c 0,12.77777 -1.11111,24.86111 -3.33333,36.25 -2.22223,11.38889 -5.55556,22.63889 -10,33.75 L 770,-308.33333 c 6.66667,6.66666 10,14.72222 10,24.16666 0,9.44445 -3.33333,17.5 -10,24.16667 l -70,70 c -6.66667,6.66667 -14.72222,10 -24.16667,10 -9.44444,0 -17.5,-3.33333 -24.16666,-10 z"
      fill="#ffffff"
    />
</svg>
